<mxfile host="app.diagrams.net" modified="2022-10-18T11:23:50.842Z" agent="5.0 (Windows NT 10.0; Win64; x64) AppleWebKit/537.36 (KHTML, like Gecko) Chrome/106.0.0.0 Safari/537.36 Edg/106.0.1370.42" etag="DC_CV9whufPpnL0eYGG6" version="20.4.1" type="github">
  <diagram id="KhJpExr83MzYsF0W_sMd" name="Seite-1">
    <mxGraphModel dx="1037" dy="545" grid="1" gridSize="10" guides="1" tooltips="1" connect="1" arrows="1" fold="1" page="1" pageScale="1" pageWidth="827" pageHeight="1169" math="0" shadow="0">
      <root>
        <mxCell id="0" />
        <mxCell id="1" parent="0" />
        <mxCell id="ZidAhm_O94yVInQLN2qD-1" value="&lt;font style=&quot;font-size: 12px;&quot;&gt;ciceron&amp;nbsp;&lt;br&gt;user&lt;br&gt;&lt;/font&gt;" style="shape=umlFrame;whiteSpace=wrap;html=1;" vertex="1" parent="1">
          <mxGeometry x="209" y="20" width="560" height="710" as="geometry" />
        </mxCell>
        <mxCell id="ZidAhm_O94yVInQLN2qD-2" style="orthogonalLoop=1;jettySize=auto;html=1;fontSize=12;sketch=0;shadow=0;" edge="1" parent="1" source="ZidAhm_O94yVInQLN2qD-5" target="ZidAhm_O94yVInQLN2qD-13">
          <mxGeometry relative="1" as="geometry" />
        </mxCell>
        <mxCell id="ZidAhm_O94yVInQLN2qD-3" style="sketch=0;orthogonalLoop=1;jettySize=auto;html=1;shadow=0;fontSize=12;" edge="1" parent="1" source="ZidAhm_O94yVInQLN2qD-5" target="ZidAhm_O94yVInQLN2qD-21">
          <mxGeometry relative="1" as="geometry" />
        </mxCell>
        <mxCell id="ZidAhm_O94yVInQLN2qD-4" style="edgeStyle=none;rounded=0;sketch=0;orthogonalLoop=1;jettySize=auto;html=1;shadow=0;fontSize=12;" edge="1" parent="1" source="ZidAhm_O94yVInQLN2qD-5" target="ZidAhm_O94yVInQLN2qD-30">
          <mxGeometry relative="1" as="geometry" />
        </mxCell>
        <mxCell id="ZidAhm_O94yVInQLN2qD-5" value="user" style="shape=umlActor;verticalLabelPosition=bottom;verticalAlign=top;html=1;fontSize=12;" vertex="1" parent="1">
          <mxGeometry x="89" y="230" width="30" height="60" as="geometry" />
        </mxCell>
        <mxCell id="ZidAhm_O94yVInQLN2qD-6" style="sketch=0;orthogonalLoop=1;jettySize=auto;html=1;shadow=0;fontSize=12;rounded=0;" edge="1" parent="1" source="ZidAhm_O94yVInQLN2qD-10" target="ZidAhm_O94yVInQLN2qD-21">
          <mxGeometry relative="1" as="geometry" />
        </mxCell>
        <mxCell id="ZidAhm_O94yVInQLN2qD-7" style="edgeStyle=none;rounded=0;sketch=0;orthogonalLoop=1;jettySize=auto;html=1;shadow=0;fontSize=12;" edge="1" parent="1" source="ZidAhm_O94yVInQLN2qD-10" target="ZidAhm_O94yVInQLN2qD-19">
          <mxGeometry relative="1" as="geometry" />
        </mxCell>
        <mxCell id="ZidAhm_O94yVInQLN2qD-8" style="edgeStyle=none;rounded=0;sketch=0;orthogonalLoop=1;jettySize=auto;html=1;shadow=0;fontSize=12;" edge="1" parent="1" source="ZidAhm_O94yVInQLN2qD-10" target="ZidAhm_O94yVInQLN2qD-13">
          <mxGeometry relative="1" as="geometry" />
        </mxCell>
        <mxCell id="ZidAhm_O94yVInQLN2qD-9" style="edgeStyle=none;rounded=0;sketch=0;orthogonalLoop=1;jettySize=auto;html=1;shadow=0;fontSize=12;" edge="1" parent="1" source="ZidAhm_O94yVInQLN2qD-10" target="ZidAhm_O94yVInQLN2qD-30">
          <mxGeometry relative="1" as="geometry" />
        </mxCell>
        <mxCell id="ZidAhm_O94yVInQLN2qD-10" value="admin" style="shape=umlActor;verticalLabelPosition=bottom;verticalAlign=top;html=1;fontSize=12;" vertex="1" parent="1">
          <mxGeometry x="59" y="480" width="30" height="60" as="geometry" />
        </mxCell>
        <mxCell id="ZidAhm_O94yVInQLN2qD-11" style="sketch=0;orthogonalLoop=1;jettySize=auto;html=1;exitX=1;exitY=0.5;exitDx=0;exitDy=0;exitPerimeter=0;entryX=0;entryY=0.5;entryDx=0;entryDy=0;entryPerimeter=0;shadow=0;dashed=1;fontSize=12;" edge="1" parent="1" source="ZidAhm_O94yVInQLN2qD-13" target="ZidAhm_O94yVInQLN2qD-15">
          <mxGeometry relative="1" as="geometry" />
        </mxCell>
        <mxCell id="ZidAhm_O94yVInQLN2qD-12" value="implements" style="edgeLabel;html=1;align=center;verticalAlign=middle;resizable=0;points=[];fontSize=12;" vertex="1" connectable="0" parent="ZidAhm_O94yVInQLN2qD-11">
          <mxGeometry x="-0.1719" y="11" relative="1" as="geometry">
            <mxPoint as="offset" />
          </mxGeometry>
        </mxCell>
        <mxCell id="ZidAhm_O94yVInQLN2qD-13" value="createUser" style="strokeWidth=2;html=1;shape=mxgraph.flowchart.start_1;whiteSpace=wrap;fontSize=12;" vertex="1" parent="1">
          <mxGeometry x="273" y="140" width="106" height="80" as="geometry" />
        </mxCell>
        <mxCell id="ZidAhm_O94yVInQLN2qD-14" value="implements" style="edgeStyle=none;rounded=0;sketch=0;orthogonalLoop=1;jettySize=auto;html=1;shadow=0;fontSize=12;dashed=1;" edge="1" parent="1" source="ZidAhm_O94yVInQLN2qD-15" target="ZidAhm_O94yVInQLN2qD-28">
          <mxGeometry relative="1" as="geometry" />
        </mxCell>
        <mxCell id="ZidAhm_O94yVInQLN2qD-15" value="addUserDatabase" style="strokeWidth=2;html=1;shape=mxgraph.flowchart.start_1;whiteSpace=wrap;fontSize=12;" vertex="1" parent="1">
          <mxGeometry x="479" y="140" width="110" height="80" as="geometry" />
        </mxCell>
        <mxCell id="ZidAhm_O94yVInQLN2qD-16" style="edgeStyle=none;rounded=0;sketch=0;orthogonalLoop=1;jettySize=auto;html=1;entryX=0;entryY=0.5;entryDx=0;entryDy=0;shadow=0;dashed=1;fontSize=12;" edge="1" parent="1" source="ZidAhm_O94yVInQLN2qD-19" target="ZidAhm_O94yVInQLN2qD-25">
          <mxGeometry relative="1" as="geometry">
            <Array as="points" />
          </mxGeometry>
        </mxCell>
        <mxCell id="ZidAhm_O94yVInQLN2qD-17" value="implements" style="edgeLabel;html=1;align=center;verticalAlign=middle;resizable=0;points=[];fontSize=12;" vertex="1" connectable="0" parent="ZidAhm_O94yVInQLN2qD-16">
          <mxGeometry x="0.217" y="-2" relative="1" as="geometry">
            <mxPoint x="-13" y="-5" as="offset" />
          </mxGeometry>
        </mxCell>
        <mxCell id="ZidAhm_O94yVInQLN2qD-18" value="extends" style="edgeStyle=none;rounded=0;sketch=0;orthogonalLoop=1;jettySize=auto;html=1;shadow=0;fontSize=12;dashed=1;" edge="1" parent="1" source="ZidAhm_O94yVInQLN2qD-19" target="ZidAhm_O94yVInQLN2qD-30">
          <mxGeometry relative="1" as="geometry" />
        </mxCell>
        <mxCell id="ZidAhm_O94yVInQLN2qD-19" value="approveUserCategory" style="ellipse;whiteSpace=wrap;html=1;fontSize=12;" vertex="1" parent="1">
          <mxGeometry x="266" y="600" width="120" height="80" as="geometry" />
        </mxCell>
        <mxCell id="ZidAhm_O94yVInQLN2qD-20" value="implements" style="sketch=0;orthogonalLoop=1;jettySize=auto;html=1;shadow=0;dashed=1;fontSize=12;" edge="1" parent="1" source="ZidAhm_O94yVInQLN2qD-21" target="ZidAhm_O94yVInQLN2qD-27">
          <mxGeometry relative="1" as="geometry" />
        </mxCell>
        <mxCell id="ZidAhm_O94yVInQLN2qD-21" value="userLogin" style="ellipse;whiteSpace=wrap;html=1;fontSize=12;" vertex="1" parent="1">
          <mxGeometry x="263" y="335" width="120" height="80" as="geometry" />
        </mxCell>
        <mxCell id="ZidAhm_O94yVInQLN2qD-22" style="edgeStyle=none;rounded=0;sketch=0;orthogonalLoop=1;jettySize=auto;html=1;shadow=0;fontSize=12;dashed=1;" edge="1" parent="1" source="ZidAhm_O94yVInQLN2qD-30" target="ZidAhm_O94yVInQLN2qD-27">
          <mxGeometry relative="1" as="geometry" />
        </mxCell>
        <mxCell id="ZidAhm_O94yVInQLN2qD-23" value="extends" style="edgeLabel;html=1;align=center;verticalAlign=middle;resizable=0;points=[];fontSize=12;" vertex="1" connectable="0" parent="ZidAhm_O94yVInQLN2qD-22">
          <mxGeometry x="0.1763" y="1" relative="1" as="geometry">
            <mxPoint as="offset" />
          </mxGeometry>
        </mxCell>
        <mxCell id="ZidAhm_O94yVInQLN2qD-24" value="implements" style="edgeStyle=none;rounded=0;sketch=0;orthogonalLoop=1;jettySize=auto;html=1;entryX=0;entryY=1;entryDx=0;entryDy=0;shadow=0;dashed=1;fontSize=12;" edge="1" parent="1" source="ZidAhm_O94yVInQLN2qD-25" target="ZidAhm_O94yVInQLN2qD-28">
          <mxGeometry relative="1" as="geometry" />
        </mxCell>
        <mxCell id="ZidAhm_O94yVInQLN2qD-25" value="editUserDatabase" style="ellipse;whiteSpace=wrap;html=1;fontSize=12;" vertex="1" parent="1">
          <mxGeometry x="479" y="560" width="120" height="80" as="geometry" />
        </mxCell>
        <mxCell id="ZidAhm_O94yVInQLN2qD-26" value="implements" style="edgeStyle=none;rounded=0;sketch=0;orthogonalLoop=1;jettySize=auto;html=1;shadow=0;dashed=1;fontSize=12;" edge="1" parent="1" source="ZidAhm_O94yVInQLN2qD-27" target="ZidAhm_O94yVInQLN2qD-28">
          <mxGeometry relative="1" as="geometry" />
        </mxCell>
        <mxCell id="ZidAhm_O94yVInQLN2qD-27" value="readFromDatabase" style="ellipse;whiteSpace=wrap;html=1;fontSize=12;" vertex="1" parent="1">
          <mxGeometry x="479" y="335" width="120" height="80" as="geometry" />
        </mxCell>
        <mxCell id="ZidAhm_O94yVInQLN2qD-28" value="connectToDatabase" style="ellipse;whiteSpace=wrap;html=1;fontSize=12;" vertex="1" parent="1">
          <mxGeometry x="639" y="250" width="120" height="80" as="geometry" />
        </mxCell>
        <mxCell id="ZidAhm_O94yVInQLN2qD-29" value="implements" style="edgeStyle=none;rounded=0;sketch=0;orthogonalLoop=1;jettySize=auto;html=1;shadow=0;dashed=1;fontSize=12;" edge="1" parent="1" source="ZidAhm_O94yVInQLN2qD-30" target="ZidAhm_O94yVInQLN2qD-25">
          <mxGeometry relative="1" as="geometry" />
        </mxCell>
        <mxCell id="ZidAhm_O94yVInQLN2qD-30" value="editUserInfo" style="ellipse;whiteSpace=wrap;html=1;fontSize=12;" vertex="1" parent="1">
          <mxGeometry x="266" y="460" width="120" height="80" as="geometry" />
        </mxCell>
      </root>
    </mxGraphModel>
  </diagram>
</mxfile>
